<svg width="184" height="125" viewBox="0 0 184 125" fill="none" xmlns="http://www.w3.org/2000/svg">
<path d="M0 0H52.3593C62.2554 0 69.092 2.39307 74.489 7.80194C79.4348 12.766 81.9573 19.4203 81.9573 27.6671C81.9573 38.3069 78.09 46.1133 70.0847 51.7846C63.2482 56.7486 54.8819 59.1462 44.8956 59.1462H0V0ZM35.5365 41.4116C40.216 41.4116 42.734 40.8779 45.1618 39.3744C48.2213 37.5107 50.0218 33.9656 50.0218 29.8867C50.0218 23.6771 46.4253 20.3989 39.6745 20.3989H30.857V41.4161H35.5365V41.4116Z" fill="#1E1E1E"/>
<path d="M154.492 59.1462V28.7302L143.964 59.1462H127.142L116.618 29.7043V59.1462H87.4716V0H126.153L135.508 28.7302L144.957 0H184V59.1462H154.492Z" fill="#1E1E1E"/>
<path d="M22.0304 125V89.3531H0V65.8539H81.9528V89.3531H59.8141V125H22.0304Z" fill="#1E1E1E"/>
<path d="M150.025 125L123.924 98.485V125H87.4716V65.8539H126.171L147.547 90.5941V65.8539H184V125H150.025Z" fill="#1E1E1E"/>
</svg>
