<svg width="28" height="28" viewBox="0 0 28 28" fill="none" xmlns="http://www.w3.org/2000/svg">
<path d="M13.9997 0C6.26795 0 0 6.2911 0 14.0514C0 20.641 4.52023 26.1705 10.6179 27.6892V18.3455H7.73121V14.0514H10.6179V12.2011C10.6179 7.41859 12.7745 5.20184 17.4526 5.20184C18.3396 5.20184 19.8701 5.37664 20.4962 5.55088V9.44312C20.1658 9.40827 19.5918 9.39085 18.8789 9.39085C16.5835 9.39085 15.6965 10.2637 15.6965 12.5327V14.0514H20.2694L19.4837 18.3455H15.6965V28C22.6286 27.1597 28 21.2356 28 14.0514C27.9994 6.2911 21.7315 0 13.9997 0Z" fill="#7E8FFF"/>
</svg>
