<svg width="2000" height="2000" viewBox="0 0 2000 2000" fill="none" xmlns="http://www.w3.org/2000/svg">
<path d="M1040.6 1817.1C1218.49 1817.1 1362.7 1804.52 1362.7 1789C1362.7 1773.48 1218.49 1760.9 1040.6 1760.9C862.709 1760.9 718.5 1773.48 718.5 1789C718.5 1804.52 862.709 1817.1 1040.6 1817.1Z" fill="black"/>
<path d="M1428.8 365.3L1483.4 383.1L1429.8 403.8L1412 458.4L1391.3 404.8L1336.7 387L1390.3 366.3L1408.1 311.7L1428.8 365.3Z" fill="white"/>
<path d="M1412 460.4C1411.2 460.4 1410.5 459.9 1410.2 459.1L1389.9 406.4L1336.2 388.9C1335.4 388.6 1334.9 387.9 1334.8 387.1C1334.8 386.3 1335.3 385.5 1336.1 385.2L1388.8 364.9L1406.3 311.2C1406.6 310.4 1407.3 309.9 1408.1 309.8C1408.9 309.8 1409.7 310.3 1410 311.1L1430.3 363.8L1484 381.3C1484.8 381.6 1485.3 382.3 1485.4 383.1C1485.4 383.9 1484.9 384.7 1484.1 385L1431.4 405.3L1413.9 459C1413.6 459.8 1412.9 460.3 1412.1 460.4H1412ZM1342.6 386.8L1391.9 402.9C1392.5 403.1 1392.9 403.5 1393.1 404.1L1411.8 452.5L1427.9 403.2C1428.1 402.6 1428.5 402.2 1429.1 402L1477.5 383.3L1428.2 367.2C1427.6 367 1427.2 366.6 1427 366L1408.3 317.6L1392.2 366.9C1392 367.5 1391.6 367.9 1391 368.1L1342.6 386.8Z" fill="black"/>
<path d="M553.9 1467.2L608.5 1485L554.9 1505.7L537 1560.3L516.4 1506.7L461.8 1488.8L515.4 1468.2L533.2 1413.6L553.9 1467.2Z" fill="white"/>
<path d="M537 1562.3C536.2 1562.3 535.5 1561.8 535.2 1561L514.9 1508.3L461.2 1490.8C460.4 1490.5 459.9 1489.8 459.8 1489C459.8 1488.2 460.3 1487.4 461.1 1487.1L513.8 1466.8L531.3 1413.1C531.6 1412.3 532.3 1411.8 533.1 1411.7C533.9 1411.7 534.7 1412.2 535 1413L555.3 1465.7L609 1483.2C609.8 1483.5 610.3 1484.2 610.4 1485C610.4 1485.8 609.9 1486.6 609.1 1486.9L556.4 1507.2L538.9 1560.9C538.6 1561.7 537.9 1562.2 537.1 1562.3H537ZM467.6 1488.7L516.9 1504.8C517.5 1505 517.9 1505.4 518.1 1506L536.8 1554.4L552.9 1505.1C553.1 1504.5 553.5 1504.1 554.1 1503.9L602.5 1485.2L553.2 1469.1C552.6 1468.9 552.2 1468.5 552 1467.9L533.3 1419.5L517.2 1468.8C517 1469.4 516.6 1469.8 516 1470L467.6 1488.7Z" fill="black"/>
<path d="M496.7 366.4L547.2 382.9L497.6 402L481.2 452.5L462 403L411.5 386.5L461.1 367.4L477.6 316.9L496.7 366.4Z" fill="white"/>
<path d="M481.2 454.5C480.4 454.5 479.7 454 479.4 453.2L460.6 404.5L411 388.3C410.2 388 409.7 387.3 409.6 386.5C409.6 385.7 410.1 384.9 410.9 384.6L459.6 365.8L475.8 316.2C476.1 315.4 476.8 314.9 477.6 314.8C478.4 314.8 479.2 315.3 479.5 316.1L498.3 364.8L547.9 381C548.7 381.3 549.2 382 549.3 382.8C549.3 383.6 548.8 384.4 548 384.7L499.3 403.5L483.1 453.1C482.8 453.9 482.1 454.4 481.3 454.5H481.2ZM417.4 386.3L462.6 401C463.2 401.2 463.6 401.6 463.8 402.2L480.9 446.6L495.6 401.4C495.8 400.8 496.2 400.4 496.8 400.2L541.2 383.1L496 368.3C495.4 368.1 495 367.7 494.8 367.1L477.7 322.7L463 367.9C462.8 368.5 462.4 368.9 461.8 369.1L417.4 386.2V386.3Z" fill="black"/>
<path d="M1365.7 1163.5L1416.2 1180L1366.6 1199.1L1350.1 1249.6L1331 1200.1L1280.5 1183.6L1330.1 1164.5L1346.5 1114L1365.7 1163.5Z" fill="white"/>
<path d="M1350.1 1251.6C1349.3 1251.6 1348.6 1251.1 1348.3 1250.3L1329.5 1201.6L1279.9 1185.4C1279.1 1185.1 1278.6 1184.4 1278.5 1183.6C1278.5 1182.8 1279 1182 1279.8 1181.7L1328.5 1162.9L1344.7 1113.3C1345 1112.5 1345.7 1112 1346.5 1111.9C1347.3 1111.9 1348.1 1112.4 1348.4 1113.2L1367.2 1161.9L1416.8 1178.1C1417.6 1178.4 1418.1 1179.1 1418.2 1179.9C1418.2 1180.7 1417.7 1181.5 1416.9 1181.8L1368.2 1200.6L1352 1250.2C1351.7 1251 1351 1251.5 1350.2 1251.6H1350.1ZM1286.4 1183.4L1331.6 1198.1C1332.2 1198.3 1332.6 1198.7 1332.8 1199.3L1349.9 1243.7L1364.6 1198.5C1364.8 1197.9 1365.2 1197.5 1365.8 1197.3L1410.2 1180.2L1365 1165.5C1364.4 1165.3 1364 1164.9 1363.8 1164.3L1346.7 1119.9L1331.9 1165.1C1331.7 1165.7 1331.3 1166.1 1330.7 1166.3L1286.3 1183.4H1286.4Z" fill="black"/>
<path d="M1298.2 315.3L1322.8 323.3L1298.7 332.6L1290.7 357.1L1281.4 333.1L1256.9 325.1L1281 315.8L1289 291.3L1298.2 315.3Z" fill="white"/>
<path d="M1290.7 359.1C1289.9 359.1 1289.2 358.6 1288.9 357.8L1280 334.6L1256.4 326.9C1255.6 326.6 1255.1 325.9 1255 325.1C1255 324.3 1255.5 323.5 1256.3 323.2L1279.5 314.3L1287.2 290.7C1287.5 289.9 1288.2 289.4 1289 289.3C1289.8 289.3 1290.6 289.8 1290.9 290.6L1299.8 313.8L1323.4 321.5C1324.2 321.8 1324.7 322.5 1324.8 323.3C1324.8 324.1 1324.3 324.9 1323.5 325.2L1300.3 334.1L1292.6 357.7C1292.3 358.5 1291.6 359 1290.8 359.1H1290.7ZM1262.8 324.9L1282 331.2C1282.6 331.4 1283 331.8 1283.2 332.4L1290.5 351.3L1296.8 332.1C1297 331.5 1297.4 331.1 1298 330.9L1316.9 323.6L1297.7 317.3C1297.1 317.1 1296.7 316.7 1296.5 316.1L1289.2 297.2L1282.9 316.4C1282.7 317 1282.3 317.4 1281.7 317.6L1262.8 324.9Z" fill="black"/>
<path d="M1454.9 1072.1L1479.4 1080.1L1455.3 1089.4L1447.3 1113.9L1438 1089.8L1413.5 1081.8L1437.6 1072.6L1445.6 1048L1454.9 1072.1Z" fill="white"/>
<path d="M1447.3 1115.9C1446.5 1115.9 1445.8 1115.4 1445.5 1114.6L1436.6 1091.4L1413 1083.7C1412.2 1083.4 1411.7 1082.7 1411.6 1081.9C1411.6 1081.1 1412.1 1080.3 1412.9 1080L1436.1 1071.1L1443.8 1047.5C1444.1 1046.7 1444.8 1046.2 1445.6 1046.1C1446.4 1046.1 1447.2 1046.6 1447.5 1047.4L1456.4 1070.6L1480 1078.3C1480.8 1078.6 1481.3 1079.3 1481.4 1080.1C1481.4 1080.9 1480.9 1081.7 1480.1 1082L1456.9 1090.9L1449.2 1114.5C1448.9 1115.3 1448.2 1115.8 1447.4 1115.9H1447.3ZM1419.4 1081.7L1438.6 1088C1439.2 1088.2 1439.6 1088.6 1439.8 1089.2L1447.1 1108.1L1453.4 1088.9C1453.6 1088.3 1454 1087.9 1454.6 1087.7L1473.5 1080.4L1454.3 1074.1C1453.7 1073.9 1453.3 1073.5 1453.1 1072.9L1445.8 1054L1439.5 1073.2C1439.3 1073.8 1438.9 1074.2 1438.3 1074.4L1419.4 1081.7Z" fill="black"/>
<path d="M244.9 774.8L269.4 782.8L245.3 792.1L237.3 816.6L228 792.6L203.5 784.6L227.6 775.3L235.6 750.8L244.9 774.8Z" fill="white"/>
<path d="M237.3 818.6C236.5 818.6 235.8 818.1 235.5 817.3L226.6 794.1L203 786.4C202.2 786.1 201.7 785.4 201.6 784.6C201.6 783.8 202.1 783 202.9 782.7L226.1 773.8L233.8 750.2C234.1 749.4 234.8 748.9 235.6 748.8C236.4 748.8 237.2 749.3 237.5 750.1L246.4 773.3L270 781C270.8 781.3 271.3 782 271.4 782.8C271.4 783.6 270.9 784.4 270.1 784.7L246.9 793.6L239.2 817.2C238.9 818 238.2 818.5 237.4 818.6H237.3ZM209.4 784.4L228.6 790.7C229.2 790.9 229.6 791.3 229.8 791.9L237.1 810.8L243.4 791.6C243.6 791 244 790.6 244.6 790.4L263.5 783.1L244.3 776.8C243.7 776.6 243.3 776.2 243.1 775.6L235.8 756.7L229.5 775.9C229.3 776.5 228.9 776.9 228.3 777.1L209.4 784.4Z" fill="black"/>
<path d="M898.5 1587.8C892.1 1589.3 885.6 1590.8 879 1592.2C878.9 1592.2 878.7 1592.2 878.6 1592.2C878 1592.2 877.5 1592 877.1 1591.5C876.2 1590.5 855.1 1565.9 859.5 1520.9C859.5 1520.3 859.9 1519.8 860.3 1519.5C860.6 1519.3 866.1 1515.4 875.1 1508.9C872.2 1506.6 869.1 1504.7 865.8 1503.3C844.6 1494.5 820.5 1508 816.4 1510.5C812.6 1524.2 816 1541.8 816 1542C816.2 1543.1 815.5 1544.1 814.4 1544.3C814.3 1544.3 814.1 1544.3 814 1544.3C813.1 1544.3 812.2 1543.6 812.1 1542.7C812 1541.9 808.7 1524.8 812.3 1510.5C807.5 1509.1 793.7 1505.4 777.9 1505.4C762.1 1505.4 755 1507.2 744.5 1512.7C744.5 1513.1 744.5 1513.6 744.2 1514C743.9 1514.5 714.4 1562.8 730.7 1658.2C738.8 1705.3 759 1739.3 789.2 1756.6C820.1 1774.2 861.1 1774.1 907.7 1756.4C907.9 1756.4 908.1 1756.3 908.2 1756.3C915.8 1747.4 920.4 1736.9 921.4 1725.4C922.7 1711.3 919.1 1699.4 910.8 1690.1C891.4 1668.3 852.3 1667.2 851.9 1667.2C800 1663.3 784.9 1697.7 780.8 1712.7C780.6 1713.6 779.8 1714.2 778.9 1714.2C778 1714.2 778.6 1714.2 778.4 1714.2C777.3 1713.9 776.7 1712.8 777 1711.8C789.7 1665.2 833.1 1662.5 849.7 1663.3L841.4 1615.3C823 1600.9 818.5 1572.6 818.3 1571.4C818.1 1570.3 818.9 1569.3 820 1569.1C821.1 1568.9 822.1 1569.7 822.3 1570.8C822.3 1571.1 826.8 1599 844.2 1612.4C847.5 1613.3 873.8 1619.9 888.7 1606.1C893.5 1601.7 896.7 1595.6 898.3 1587.9L898.5 1587.8Z" fill="#FF6E86"/>
<path d="M842.5 1773.7C822 1773.7 803.5 1769.1 787.5 1760C756.2 1742.1 735.3 1707.2 727 1658.8C713.1 1577.6 731.5 1530.7 738.5 1516.5C732.3 1521 726.9 1527.1 722.8 1535.3C700.4 1580.6 692.9 1699.2 759.2 1755.2C800.8 1790.4 849.7 1788.9 878.8 1776.9C887.9 1773.2 895.8 1768.3 902.2 1762.6C881 1770 860.9 1773.7 842.5 1773.7Z" fill="#FF6E86"/>
<path d="M1088.2 1403.3C1102.1 1420.6 1114.4 1437.8 1125.3 1453.8C1131.5 1445.6 1137.3 1437.2 1142.5 1428.4C1191.4 1345.6 1177.3 1259.3 1171.7 1234.5L1088.3 1403.3H1088.2Z" fill="#5DC2FB"/>
<path d="M1042.2 1526.9L978.3 1434.3C939.2 1467.2 891.5 1502 871.8 1516.2L874.3 1515C865.9 1534.2 868.5 1559.7 870.7 1572.5C874.2 1580.8 877.9 1586 879.4 1588C943.8 1574.1 998.2 1553.7 1042.2 1526.8V1526.9Z" fill="#5DC2FB"/>
<path d="M787.7 572.8L911.4 480.6L570.9 483.8L554.7 483.9L550.6 749.5L787.7 572.8Z" fill="#ABDEF9"/>
<path d="M1334.3 688.4L1262.2 652.5L917.6 480.9L555.3 751L1334.3 688.5V688.4ZM867 700.5C865.6 704.6 861.1 706.8 857 705.4C844.7 701.2 830.4 703.8 820.4 712.1C818.9 713.3 817.1 713.9 815.4 713.9C813.7 713.9 810.9 712.9 809.3 711C806.5 707.6 807 702.7 810.3 699.9C824.4 688.2 844.7 684.4 862.1 690.4C866.2 691.8 868.4 696.3 867 700.4V700.5ZM1079.9 683.5C1093.9 671.7 1114.2 667.8 1131.6 673.6C1135.7 675 1138 679.5 1136.6 683.6C1135.2 687.7 1130.7 690 1126.6 688.6C1114.3 684.5 1100 687.2 1090.1 695.6C1088.6 696.9 1086.8 697.5 1085 697.5C1083.2 697.5 1080.5 696.5 1079 694.7C1076.2 691.4 1076.6 686.4 1079.9 683.6V683.5Z" fill="#D1EDF9"/>
<path d="M1532.6 618L1264.1 430L1313.3 590.7L1342.8 687.2L1532.6 618Z" fill="#8DCAF1"/>
<path d="M943.2 476.5L923.8 479.5L1338.3 686L1259.1 427.3L943.2 476.5Z" fill="#ABDEF9"/>
<path d="M552.4 755.1L860.4 1138.7C887.2 1130.4 911.7 1130.3 928 1137C949.4 1145.8 961.8 1165.7 963.8 1194.8C969 1198.7 996.4 1221.8 982.4 1263.1C985.9 1267.8 1002.1 1290.6 1003.5 1316.6C1027.5 1336 1049.4 1357.9 1069 1380.3L1338.6 692L552.5 755.1H552.4Z" fill="#ABDEF9"/>
<path d="M546.6 751.4L550.7 486.8L531.4 506.3L301.6 737.4L546.6 751.4Z" fill="#8DCAF1"/>
<path d="M813.8 758C814.8 757.9 815.8 757.8 816.8 757.8C838.7 756.8 858.9 769.2 873.4 789.5L849 813.7L887.4 816.6C892 829.1 894.8 843.1 895.5 857.9C896.5 879.7 892.5 900 885 917C889.3 917.8 893.6 918.7 898 919.9C910.2 900.4 916.2 875.4 915 848.9C913.8 821.7 905.1 796.5 890.5 777.9C876.6 760.3 859 750.7 840.7 750.7C822.4 750.7 839.2 750.7 838.4 750.7C829.8 751.1 821.5 753.6 813.8 758Z" fill="white"/>
<path d="M919.9 931.2C920.9 931.6 922.1 931.2 922.5 930.1C922.9 929.1 922.5 927.9 921.4 927.5C914.8 924.9 908.4 922.7 902 920.9C914.2 900.8 920.2 875.5 919 848.7C917.8 820.7 908.8 794.7 893.6 775.5C878.3 756.1 858.7 746 838.2 746.8C817.8 747.7 799.1 759.6 785.6 780.3C772.2 800.8 765.6 827.5 766.8 855.5C768 881.7 775.9 906.1 789.3 924.9C776.2 929.7 768.7 934.3 768.5 934.4C767.6 935 767.3 936.2 767.9 937.1C768.3 937.7 768.9 938 769.6 938C770.3 938 770.3 938 770.6 937.7C771.2 937.3 836.1 897.9 919.9 931.2ZM890.5 777.9C905.1 796.5 913.8 821.7 915 848.9C916.2 875.3 910.1 900.3 898 919.9C893.6 918.8 889.3 917.8 885 917C892.5 900 896.5 879.6 895.5 857.9C894.8 843.1 892 829.2 887.4 816.6L849 813.7L873.4 789.5C858.9 769.1 838.7 756.8 816.8 757.8C815.8 757.8 814.8 757.9 813.8 758C821.5 753.6 829.8 751.1 838.4 750.7C839.2 750.7 840 750.7 840.7 750.7C859 750.7 876.6 760.3 890.5 777.9Z" fill="black"/>
<path d="M1087.7 732.2C1088.7 732 1089.7 731.8 1090.6 731.7C1112.2 728.5 1133.6 738.7 1150.1 757.5L1128.3 784L1166.8 782.9C1172.6 794.9 1176.9 808.5 1179 823.1C1182.1 844.1 1180.4 864.2 1175 881.5C1179.4 881.8 1183.9 882.3 1188.5 883C1198 862.6 1201.2 837.7 1197.5 812.1C1189.9 760.3 1155.5 721.7 1118.9 721.7C1082.3 721.7 1113.9 721.9 1111.3 722.3C1102.7 723.6 1094.7 727 1087.6 732.1L1087.7 732.2Z" fill="white"/>
<path d="M1079.8 900C1068.3 905.8 1061.8 910.6 1061.6 910.8C1060.7 911.5 1060.6 912.7 1061.2 913.6C1061.6 914.1 1062.2 914.4 1062.8 914.4C1063.4 914.4 1063.6 914.3 1064 914C1064.6 913.5 1125.1 867.8 1211.8 892.3C1212.8 892.6 1213.9 892 1214.2 890.9C1214.5 889.9 1213.9 888.8 1212.8 888.5C1205.9 886.5 1199.1 885 1192.5 883.9C1202 863 1205.2 837.7 1201.4 811.8C1192.9 754.3 1152.3 712.5 1110.7 718.6C1069.2 724.7 1042.3 776.5 1050.7 834C1054.5 859.6 1064.7 882.8 1079.6 900.1L1079.8 900ZM1197.6 812.3C1201.4 837.9 1198.2 862.8 1188.6 883.2C1184 882.5 1179.5 882 1175.1 881.7C1180.5 864.3 1182.2 844.2 1179.1 823.3C1176.9 808.7 1172.7 795.1 1166.9 783.1L1128.4 784.2L1150.2 757.7C1133.7 738.9 1112.3 728.7 1090.7 731.9C1089.7 732 1088.7 732.2 1087.8 732.4C1094.9 727.3 1102.9 723.9 1111.5 722.6C1114 722.2 1116.6 722 1119.1 722C1155.7 722 1190.1 760.6 1197.7 812.4L1197.6 812.3Z" fill="black"/>
<path d="M862.1 690.5C844.7 684.5 824.4 688.3 810.3 700C806.9 702.8 806.5 707.8 809.3 711.1C810.9 713 813.1 714 815.4 714C817.7 714 819 713.4 820.4 712.2C830.4 703.9 844.7 701.3 857 705.5C861.1 706.9 865.6 704.7 867 700.6C868.4 696.5 866.2 692 862.1 690.6V690.5Z" fill="black"/>
<path d="M1085 697.5C1086.8 697.5 1088.6 696.9 1090.1 695.6C1100 687.2 1114.3 684.5 1126.6 688.6C1130.7 690 1135.2 687.7 1136.6 683.6C1138 679.5 1135.7 675 1131.6 673.6C1114.2 667.8 1093.9 671.7 1079.9 683.5C1076.6 686.3 1076.1 691.3 1079 694.6C1080.6 696.4 1082.8 697.4 1085 697.4V697.5Z" fill="black"/>
<path d="M967.3 899.5C976.7 888.5 991.4 883.1 1003.9 886C1017.5 889.1 1027.5 902.6 1025.7 915.4C1024.6 923.3 1019.4 930.7 1011.6 935.9C1005.3 940.1 997.4 942.8 986.7 944.6C985.6 944.8 984.9 945.8 985.1 946.9C985.3 947.9 986.1 948.6 987 948.6C987.9 948.6 987.2 948.6 987.3 948.6C998.5 946.8 1006.9 943.8 1013.7 939.4C1022.5 933.6 1028.3 925.1 1029.6 916.2C1031.7 901.5 1020.3 886 1004.8 882.4C990.9 879.2 974.6 885.1 964.3 897.2C963.6 898 963.7 899.3 964.5 900C965.3 900.7 966.6 900.6 967.3 899.8V899.5Z" fill="black"/>
<path d="M1150.1 931.2C1129.3 931.3 1117.5 913.1 1117.4 912.9C1116.1 910.7 1112.7 912.9 1114.1 915C1114.4 915.5 1118.3 921.6 1125.7 927C1077.4 961.2 919.5 969.2 868.2 959C870.6 957.2 883.5 946.7 879.7 942.7C878.7 942.2 877.5 942.5 877 943.5C865.1 964.6 844.5 961 843.4 966.1C844.4 970 853.6 966.7 863.9 961.6C863.2 996.1 899.2 1076.4 970.8 1084.6C1089.2 1107.5 1138 1019.6 1129.1 929.2C1131.5 931 1150.1 938.9 1152.1 933C1152.1 931.9 1151.1 930.9 1150.1 931V931.2Z" fill="black"/>
<path d="M1008.4 1083.8C1056.1 1083.2 1089.9 1063.9 1109 1026.6C1017.7 982.5 950.6 1026.2 917.7 1057.7C941.1 1075.5 971.7 1084.3 1008.4 1083.8Z" fill="#FF6E86"/>
<path d="M1560.8 737.9C1560.3 737.3 1559.9 736.7 1559.4 736.1C1532.8 773.9 1465.3 852.1 1362.6 852.1C1360.8 852.1 1359 852.1 1357.1 852.1C1356 852.1 1355.1 851.2 1355.2 850.1C1355.2 849 1356 848.1 1357.2 848.2C1359 848.2 1360.8 848.2 1362.6 848.2C1375.3 848.2 1387.5 847 1399.2 844.7L1532.3 622.3L1401.9 669.8L1343 691.3L1071.8 1383.7C1072.7 1384.7 1073.6 1385.8 1074.5 1386.8L1278.9 1045.5C1280.8 1030.6 1274.1 1014.1 1267 1011.6C1264.5 1011.9 1263.1 1012.1 1263 1012.1C1263 1012.1 1262.9 1012.1 1262.8 1012.1C1261.8 1012.1 1260.9 1011.3 1260.8 1010.3C1260.7 1009.2 1261.5 1008.2 1262.6 1008.1C1263.3 1008.1 1334.8 1000 1415.3 965.3C1483.5 935.9 1571.1 881.3 1617.3 784.9C1577.8 771.4 1563.8 744.4 1560.8 737.8V737.9Z" fill="#5DC2FB"/>
<path d="M1816.4 556.3C1809.9 550.2 1798.3 550.8 1787.6 557.9C1766.1 572 1742.5 605.4 1739.2 610.1C1743.9 617.6 1747.8 626.4 1750.5 636.8C1750.8 637.9 1750.2 638.9 1749.1 639.2C1748.9 639.2 1748.8 639.2 1748.6 639.2C1747.7 639.2 1746.9 638.6 1746.7 637.7C1735.6 596.3 1706.6 580.7 1684.6 574.9C1684.1 575.1 1683.5 575.1 1683 574.9C1682.8 574.8 1682.5 574.6 1682.4 574.4C1668.8 571.1 1658.3 571.6 1657.2 571.6C1656.1 571.6 1655.2 570.8 1655.1 569.7C1655.1 568.6 1655.9 567.7 1657 567.6C1657.3 567.6 1668.3 567.1 1682.8 570.6C1687.3 560.3 1711.9 502.9 1713.5 488C1714.2 481.6 1709.4 474.7 1701.4 470.9C1692.9 466.9 1680.3 466.1 1670.3 476.3C1653.6 493.3 1626.3 562 1621.7 573.7C1631.3 578.6 1676.6 605.8 1664.5 679.6C1664.3 680.6 1663.5 681.3 1662.6 681.3C1661.7 681.3 1662.4 681.3 1662.3 681.3C1661.2 681.1 1660.5 680.1 1660.7 679C1667.4 637.7 1655.6 612.1 1644.5 597.8C1632.5 582.3 1618.6 576.5 1618.5 576.5C1618.3 576.5 1618.2 576.3 1618.1 576.2C1618 576.1 1617.9 575.9 1617.8 575.8C1617.8 575.8 1617.8 575.8 1617.8 575.7C1617.8 575.5 1617.6 575.4 1617.6 575.2C1617.5 574.6 1605.9 516.3 1582.4 504.6C1576.8 501.8 1571.2 502 1565.1 505C1542.2 516.4 1544.9 530.5 1550.3 558.5C1553.3 574.3 1557.1 593.9 1557.2 618.9C1557.4 685.6 1587 697.1 1587.3 697.2C1588.3 697.6 1588.9 698.7 1588.5 699.7C1588.1 700.7 1587 701.3 1586 700.9C1585.2 700.6 1574.3 696.5 1565.2 679.2C1555.9 695.7 1553.2 709.3 1556.7 721.2C1561.5 737.7 1578.1 751.8 1607.4 764.4C1628 773.3 1645.9 774.3 1660.4 767.4C1674.2 760.8 1681.9 748.4 1685.6 740.6C1676.5 740.3 1666.9 738.1 1656.7 733.7C1655.7 733.3 1655.2 732.1 1655.7 731.1C1656.1 730.1 1657.3 729.6 1658.3 730.1C1731.4 761.8 1775.5 670 1801.8 615.1C1806.7 605 1810.8 596.3 1814.5 589.8C1822.7 575.2 1823.5 562.7 1816.5 556.1L1816.4 556.3Z" fill="white"/>
<path d="M1687 572C1703.2 576.6 1722.8 586.2 1736.7 606.4C1743.6 593.9 1776.2 533.8 1778.3 516.8C1779.5 506.5 1773.3 494.6 1764.2 489.8C1757 486 1749.2 487.3 1742.4 493.3C1725.2 508.5 1693.9 560.5 1687 572.1V572Z" fill="white"/>
<path d="M1819.1 553.5C1811.2 546.1 1797.7 546.6 1785.4 554.7C1773.2 562.7 1760.7 576.3 1751.2 587.8C1763.5 564.5 1780.7 530.1 1782.2 517.3C1783.6 505.2 1776.7 491.9 1766 486.3C1757.2 481.7 1747.9 483.1 1739.7 490.4C1727.5 501.2 1709 528.9 1696.3 549.2C1705.1 527.9 1716.3 499.2 1717.5 488.9C1718.4 480.7 1712.8 472.4 1703.2 467.8C1693.5 463.2 1679 462.3 1667.6 474C1651.7 490.2 1627.5 549.1 1619.9 568.4C1616.1 552.4 1604.6 511.6 1584 501.4C1577.4 498.1 1570.3 498.2 1563.2 501.8C1537.6 514.5 1540.9 531.5 1546.3 559.6C1549.3 575.2 1553 594.6 1553.1 619.3C1553.1 645.1 1557.5 663 1563 675.3C1552.1 693.9 1548.8 709.1 1552.8 722.8C1553.8 726.2 1555.3 729.6 1557.2 732.8C1535.4 764.2 1483.2 826.6 1404.5 843.9L1538.7 619.9C1538.7 619.9 1538.7 619.8 1538.7 619.7V619.5C1538.7 619.5 1538.7 619.5 1538.7 619.4C1538.7 619.3 1538.7 619.2 1538.7 619.1C1538.7 619.1 1538.7 619.1 1538.7 619C1538.7 618.9 1538.7 618.7 1538.6 618.6C1538.6 618.5 1538.5 618.4 1538.4 618.2C1538.3 618.1 1538.2 618 1538 617.9L1261.6 424.4C1261.5 424.4 1261.3 424.2 1261.2 424.2L1203.7 403.4C1203.5 403.4 1203.3 403.3 1203 403.3L905.1 404L590.6 453.4C590.3 453.4 590 453.6 589.7 453.8L551.6 481.4C551.6 481.4 551.5 481.4 551.4 481.5L295.8 738.7C295.8 738.7 295.8 738.7 295.7 738.8C295.7 738.8 295.6 739 295.5 739.1C295.5 739.1 295.5 739.1 295.5 739.2C295.5 739.3 295.5 739.4 295.4 739.6C295.4 739.6 295.4 739.6 295.4 739.7C295.4 739.7 295.4 739.7 295.4 739.8C295.4 739.8 295.4 740 295.4 740.1C295.4 740.1 295.4 740.1 295.4 740.2C295.4 740.2 295.4 740.2 295.4 740.3C295.4 740.4 295.4 740.5 295.4 740.6C295.4 740.6 295.4 740.6 295.4 740.7C295.4 740.7 295.4 740.7 295.4 740.8C295.4 740.8 295.4 740.9 295.5 741C295.5 741 295.5 741 295.5 741.1C295.5 741.1 295.5 741.1 295.6 741.2L566.2 1014.9C531 1044.4 497.9 1086.8 489.8 1145.1C478.2 1228.7 501.9 1301.5 554.9 1345C587.1 1371.4 626.9 1384.9 669.6 1384.9C712.3 1384.9 708 1382.2 727.6 1376.9C731.9 1382.3 736.8 1386.5 742.2 1389.3C748.5 1392.6 755.5 1394.3 763.6 1394.3C771.7 1394.3 786.3 1391.4 800.6 1385.6C805.6 1390.1 811.3 1393.3 817.8 1395.3C847.2 1404.3 881.8 1384.6 890.5 1379.1C895.7 1390.9 904.9 1397.8 917.1 1399.1C918.5 1399.3 920 1399.3 921.5 1399.3C928 1399.3 935.1 1397.8 942.2 1395.2L977.2 1430.6C943 1459.6 901.6 1490.3 878.3 1507.2C874.9 1504.3 871.2 1502 867.2 1500.4C844.3 1490.9 819.2 1504.8 814.3 1507.8C810.4 1506.6 794.9 1501.9 776.8 1502.2C749.3 1502.4 729.3 1513.5 719 1534.4C696.1 1580.6 688.6 1701.8 756.4 1759C780 1778.9 809.4 1789.4 838.1 1789.4C866.8 1789.4 866.8 1786.7 880.1 1781.3C906.8 1770.4 923.3 1750.4 925.5 1726.4C926.9 1711.2 923 1698.3 913.9 1688.1C895.5 1667.4 861.7 1664.4 853.8 1664L845.8 1617.4C854 1619.3 876.9 1622.9 891.4 1609.6C897.2 1604.3 900.9 1596.8 902.5 1587.5C965.6 1571.8 1018.4 1549.4 1060.5 1520.4C1073.7 1536.2 1088.1 1553.9 1103.9 1574.2C1099.7 1583.8 1099.3 1592.2 1100.3 1598.8C1103.2 1618.1 1119.3 1632.9 1133.3 1638.8C1137.2 1647.6 1171.5 1721.9 1212.6 1735.3C1217.6 1737.5 1223.3 1738.6 1229.5 1738.6C1251.8 1738.6 1281 1724.5 1312.6 1698.1C1350.3 1666.5 1385.4 1622.7 1406.4 1580.9C1435.7 1522.5 1432.6 1477.6 1397.8 1457.6C1394 1452.6 1347.3 1392.2 1288.4 1417C1231.2 1441 1231.8 1496 1232.1 1503.4L1200.7 1542.6C1198.4 1537.5 1192.7 1528.1 1181.4 1524.6C1176.9 1523.2 1172 1522.9 1166.7 1523.7C1158.4 1508.3 1145.1 1484.9 1127.2 1458.1C1133.9 1449.5 1140 1440.5 1145.5 1431.2C1199.7 1339.4 1177.6 1243.4 1173.8 1229L1308.1 1004.7C1336.4 998.4 1375.3 987.6 1416.4 969.8C1488 939 1580.9 880.5 1625.9 775.4C1630.4 776.3 1634.8 776.7 1639 776.7C1647.2 776.7 1654.7 775.1 1661.6 771.8C1677.7 764.1 1685.9 749.6 1689.5 741.5C1746.3 739.7 1782.1 665.2 1804.9 617.7C1809.7 607.7 1813.9 599 1817.5 592.6C1826.7 576.4 1827.2 562 1818.8 554.1L1819.1 553.5ZM1801.6 615.3C1775.3 670.1 1731.2 762 1658.1 730.3C1657.1 729.9 1655.9 730.3 1655.5 731.3C1655.1 732.3 1655.5 733.5 1656.5 733.9C1666.7 738.3 1676.3 740.5 1685.4 740.8C1681.7 748.6 1674 761 1660.2 767.6C1645.7 774.5 1627.9 773.5 1607.2 764.6C1577.9 752 1561.3 737.9 1556.5 721.4C1553 709.4 1555.7 695.9 1565 679.4C1574 696.7 1585 700.9 1585.8 701.1C1586.8 701.5 1587.9 700.9 1588.3 699.9C1588.7 698.9 1588.1 697.7 1587.1 697.4C1586.8 697.3 1557.2 685.8 1557 619.1C1557 594 1553.1 574.4 1550.1 558.7C1544.7 530.7 1542 516.6 1564.9 505.2C1571 502.2 1576.7 502 1582.2 504.8C1605.7 516.4 1617.3 574.8 1617.4 575.4C1617.4 575.6 1617.5 575.8 1617.6 575.9C1617.6 575.9 1617.6 575.9 1617.6 576C1617.6 576.2 1617.8 576.3 1617.9 576.4C1618 576.5 1618.2 576.6 1618.3 576.7C1618.4 576.7 1632.3 582.6 1644.3 598C1655.4 612.2 1667.2 637.9 1660.5 679.2C1660.3 680.3 1661.1 681.3 1662.1 681.5C1662.2 681.5 1662.3 681.5 1662.4 681.5C1663.3 681.5 1664.2 680.8 1664.3 679.8C1676.3 605.9 1631.1 578.7 1621.5 573.9C1626.1 562.2 1653.4 493.5 1670.1 476.5C1680.1 466.4 1692.7 467.1 1701.2 471.1C1709.2 474.9 1714 481.8 1713.3 488.2C1711.6 503.1 1687 560.5 1682.6 570.8C1668.1 567.3 1657 567.7 1656.8 567.8C1655.7 567.8 1654.9 568.8 1654.9 569.9C1654.9 571 1655.9 571.8 1657 571.8C1658.1 571.8 1668.6 571.3 1682.2 574.6C1682.4 574.8 1682.6 575 1682.8 575.1C1683.3 575.4 1683.9 575.4 1684.4 575.1C1706.4 580.9 1735.4 596.5 1746.5 637.9C1746.7 638.8 1747.5 639.4 1748.4 639.4C1749.3 639.4 1748.7 639.4 1748.9 639.4C1750 639.1 1750.6 638 1750.3 637C1747.5 626.6 1743.6 617.8 1739 610.3C1742.3 605.6 1765.9 572.2 1787.4 558.1C1798.1 551.1 1809.7 550.4 1816.2 556.5C1823.2 563 1822.4 575.6 1814.2 590.2C1810.5 596.7 1806.3 605.4 1801.5 615.5L1801.6 615.3ZM1415.3 965.4C1334.8 1000.1 1263.3 1008.1 1262.6 1008.2C1261.5 1008.3 1260.7 1009.3 1260.8 1010.4C1260.9 1011.4 1261.8 1012.2 1262.8 1012.2C1263.8 1012.2 1262.9 1012.2 1263 1012.2C1263 1012.2 1264.5 1012 1267 1011.7C1274.1 1014.2 1280.7 1030.7 1278.9 1045.6L1074.5 1386.9C1073.6 1385.9 1072.7 1384.8 1071.8 1383.8L1343 691.4L1401.9 669.9L1532.3 622.4L1399.2 844.8C1387.6 847 1375.4 848.3 1362.6 848.3C1349.8 848.3 1359 848.3 1357.2 848.3C1356 848.3 1355.2 849.1 1355.2 850.2C1355.2 851.3 1356 852.2 1357.1 852.2C1358.9 852.2 1360.8 852.2 1362.6 852.2C1465.3 852.2 1532.8 773.9 1559.4 736.2C1559.8 736.8 1560.3 737.4 1560.8 738C1563.7 744.6 1577.8 771.6 1617.3 785.1C1571.1 881.5 1483.5 936.2 1415.3 965.5V965.4ZM1142.4 1428.5C1137.2 1437.3 1131.5 1445.7 1125.2 1453.9C1114.4 1437.9 1102 1420.7 1088.1 1403.4L1171.5 1234.6C1177.1 1259.4 1191.2 1345.7 1142.3 1428.5H1142.4ZM1198 1544.9C1185.6 1553 1174.9 1566.6 1174.4 1567.2C1173.7 1568.1 1173.9 1569.3 1174.7 1570C1175.1 1570.3 1175.5 1570.4 1175.9 1570.4C1176.3 1570.4 1177.1 1570.1 1177.5 1569.6C1177.6 1569.5 1189 1554.9 1201.4 1547.4C1201.4 1547.4 1201.4 1547.4 1201.5 1547.4C1201.6 1547.4 1201.7 1547.2 1201.8 1547.1L1232.8 1508.4C1234.7 1522.9 1239.1 1533.3 1239.3 1533.7C1239.6 1534.4 1240.4 1534.9 1241.1 1534.9C1241.8 1534.9 1241.6 1534.9 1241.9 1534.7C1242.9 1534.3 1243.4 1533.1 1242.9 1532.1C1242.9 1532 1237.5 1519.5 1236.2 1503.2C1236.2 1502.6 1231.7 1444.6 1290 1420C1327.3 1404.3 1359.6 1424.7 1378.2 1441.5C1347.3 1436.3 1304.9 1449.5 1229.8 1556.1C1172.6 1637.3 1176.3 1687.8 1181 1706.7C1156.6 1679.6 1138.7 1640.4 1136.8 1636.2C1136.8 1611.4 1149.8 1593.9 1149.9 1593.7C1150.6 1592.8 1150.4 1591.6 1149.5 1590.9C1148.6 1590.2 1147.4 1590.4 1146.7 1591.3C1146.1 1592 1133.6 1608.8 1132.8 1633.6C1120.3 1627.6 1106.6 1614.4 1104.1 1597.6C1101.5 1580.2 1111.3 1562 1132.5 1545.1C1147.9 1532.8 1161.2 1526.6 1172.4 1526.6C1183.6 1526.6 1177.8 1527 1180.2 1527.7C1191.1 1531.1 1196.2 1541.3 1197.7 1545L1198 1544.9ZM1383.7 1446.5C1386.2 1449 1388.2 1451.2 1389.9 1453.2C1373.2 1447.6 1353 1452 1330.8 1466C1262.5 1509.3 1187.3 1636.4 1192.1 1700.3C1192.8 1709.5 1195.1 1717 1199 1722.9C1195.2 1720.2 1191.6 1717.1 1188 1713.7C1187.9 1713.5 1187.7 1713.2 1187.5 1713.1C1185.6 1709.6 1162.5 1658.6 1233.2 1558.3C1322.4 1431.6 1365.1 1442 1383.4 1446.5C1383.5 1446.5 1383.6 1446.5 1383.7 1446.5ZM1155.1 1526.4C1144.6 1528.1 1123.7 1535 1100.5 1562.4C1036.4 1481 997.5 1442.9 953.1 1399.3C950.9 1397.1 948.7 1395 946.5 1392.8C964.4 1385 982.6 1370.1 994.5 1351.7C1000.8 1341.9 1003.4 1331.7 1003.6 1321.8C1084.6 1388.3 1140.9 1482.7 1163 1523.7C1160.4 1524.3 1157.8 1525.2 1155.1 1526.4ZM844.4 1612.3C827 1598.9 822.5 1571 822.5 1570.7C822.3 1569.6 821.3 1568.9 820.2 1569C819.1 1569.2 818.4 1570.2 818.5 1571.3C818.7 1572.5 823.2 1600.8 841.6 1615.2L849.9 1663.2C833.3 1662.4 789.9 1665.1 777.2 1711.7C776.9 1712.8 777.5 1713.8 778.6 1714.1C778.8 1714.1 778.9 1714.1 779.1 1714.1C780 1714.1 780.8 1713.5 781 1712.6C785.1 1697.6 800.3 1663.2 852.1 1667.1C852.5 1667.1 891.6 1668.2 911 1690C919.3 1699.3 922.9 1711.2 921.6 1725.3C920.6 1736.7 916 1747.2 908.4 1756.2C908.2 1756.2 908 1756.2 907.9 1756.3C861.2 1774.1 820.3 1774.2 789.4 1756.5C759.2 1739.3 738.9 1705.2 730.9 1658.1C714.6 1562.8 744.1 1514.4 744.4 1513.9C744.6 1513.5 744.7 1513.1 744.7 1512.6C755.2 1507.1 767.1 1505.3 778.1 1505.3C793.9 1505.3 807.7 1509 812.5 1510.4C808.9 1524.7 812.2 1541.9 812.3 1542.6C812.5 1543.5 813.3 1544.2 814.2 1544.2C815.1 1544.2 814.4 1544.2 814.6 1544.2C815.7 1544 816.4 1543 816.2 1541.9C816.2 1541.7 812.8 1524 816.6 1510.4C820.7 1507.9 844.9 1494.4 866 1503.2C869.3 1504.6 872.4 1506.4 875.3 1508.8C866.3 1515.3 860.8 1519.2 860.5 1519.4C860 1519.7 859.7 1520.3 859.7 1520.8C855.3 1565.8 876.4 1590.4 877.3 1591.4C877.7 1591.8 878.2 1592.1 878.8 1592.1C879.4 1592.1 879.1 1592.1 879.2 1592.1C885.8 1590.7 892.3 1589.2 898.7 1587.7C897.1 1595.4 893.9 1601.5 889.1 1605.9C874.2 1619.7 847.9 1613.1 844.6 1612.2L844.4 1612.3ZM759.1 1755.3C692.8 1699.3 700.3 1580.7 722.7 1535.4C726.8 1527.1 732.2 1521 738.4 1516.6C731.3 1530.8 713 1577.7 726.9 1658.9C735.2 1707.2 756.1 1742.2 787.4 1760.1C803.4 1769.2 821.9 1773.8 842.4 1773.8C862.9 1773.8 880.9 1770.1 902.1 1762.7C895.7 1768.4 887.8 1773.3 878.7 1777C849.5 1789 800.7 1790.5 759.1 1755.3ZM879.4 1588.1C877.9 1586.1 874.2 1580.9 870.7 1572.6C868.5 1559.8 865.9 1534.2 874.3 1515.1L871.8 1516.3C891.5 1502.2 939.2 1467.3 978.3 1434.4L1042.2 1527C998.2 1553.8 943.8 1574.3 879.4 1588.2V1588.1ZM893.9 1376.2C921.6 1355.8 939.2 1333.7 943.6 1328C947.4 1331.6 950.1 1334.7 950.2 1334.7C950.6 1335.2 951.1 1335.4 951.7 1335.4C952.3 1335.4 952.6 1335.2 953 1334.9C953.8 1334.2 953.9 1332.9 953.2 1332.1C952.8 1331.7 944.2 1321.6 935 1316.5C934 1316 932.8 1316.3 932.3 1317.3C931.8 1318.3 932.1 1319.5 933.1 1320C935.7 1321.4 938.3 1323.3 940.7 1325.3C936.8 1330.4 918.9 1353.2 890.4 1373.8C889.1 1374.6 850.1 1400.3 819 1390.8C805.4 1386.6 795.1 1376.1 788.5 1359.7C788.1 1358.7 786.9 1358.2 785.9 1358.6C784.9 1359 784.4 1360.2 784.8 1361.2C788.1 1369.5 792.4 1376.4 797.5 1381.9C774.3 1391 757.2 1392.1 744.1 1385.1C728.6 1376.9 717.9 1357.3 711.3 1325.3C706.7 1302.8 709.4 1284.7 719.3 1271.6C729.2 1258.5 744.1 1253.5 752.5 1251.6C751.4 1272.8 758.4 1287.4 758.5 1287.7C759 1288.7 760.2 1289.1 761.1 1288.6C762.1 1288.1 762.5 1286.9 762 1286C762 1285.9 755.6 1272.8 756.1 1253.5C756.6 1235.7 763.4 1208.8 792.9 1182.3C829 1149.8 888.7 1125.4 926.2 1140.8C945.9 1148.9 957.1 1166.5 959.4 1193.3C894.3 1174.2 860.3 1201.5 845.6 1219.7C844.9 1220.5 845.1 1221.8 845.9 1222.5C846.3 1222.8 846.7 1222.9 847.1 1222.9C847.5 1222.9 848.2 1222.6 848.6 1222.2C881.6 1181.2 932.8 1189.3 960.6 1197.8C963.6 1199.9 991.4 1220.5 978.7 1260.4C953.5 1242.4 905.2 1245.1 875.6 1276.6C874.8 1277.4 874.9 1278.6 875.6 1279.4C876 1279.8 876.5 1279.9 877 1279.9C877.5 1279.9 878 1279.7 878.4 1279.3C901.9 1254.4 950.6 1242.8 978.3 1265.1C980.8 1268.3 1014.6 1313 990.6 1349.8C972.9 1377 939.9 1397.1 917.1 1394.6C906 1393.4 898 1387.2 893.4 1376.3L893.9 1376.2ZM493.8 1144.9C512.2 1012.1 663.7 962.8 665.3 962.3C666.3 962 666.9 960.9 666.6 959.8C666.3 958.8 665.2 958.2 664.1 958.5C663.2 958.8 615.1 974.4 569.4 1011.6L302.2 741.3L547.6 755.3L856.4 1139.9C834.7 1147.3 811.7 1160.1 790.5 1179.1C779.1 1189.3 771 1199.7 765.2 1209.7L685.8 1129.4C681 1114.4 693.6 1093.3 704.4 1088.6C706.3 1088.2 707.4 1088.1 707.5 1088C708.6 1087.8 709.3 1086.8 709.2 1085.8C709 1084.7 708 1084 707 1084.1C705.8 1084.3 585.7 1102.9 599.8 1207.8C604.5 1242.6 618.2 1267 640.5 1280.2C662.4 1293.2 688.1 1292.9 706.8 1290C706.4 1291.6 706.2 1293.3 705.9 1295C693.3 1326.9 704.3 1366.9 707.2 1376.5C651.3 1386.6 598.1 1374.4 557.4 1341C505.5 1298.5 482.3 1226.9 493.7 1144.7L493.8 1144.9ZM979.2 406.7H1023C1023 406.6 1057.3 406.5 1057.3 406.5L1157 406.3H1202.6C1202.6 406.2 1252.6 424.3 1252.6 424.3L1122.2 444.6L1006.3 462.7L966.5 468.9L917.4 476.6H915.9L559 480L591.7 456.3L905.4 407L979.3 406.8L979.2 406.7ZM763.3 1213.4C756.9 1225.5 754 1237.1 753 1247.4C744.2 1249.2 727.5 1254.3 716.3 1269.2C712.6 1274.1 709.8 1279.7 708 1285.9C689.7 1288.9 663.9 1289.7 642.5 1277C621.3 1264.4 608.2 1241 603.7 1207.5C598 1165.2 613.6 1132.3 650.2 1109.7C652.4 1108.3 654.6 1107.1 656.9 1105.8L763.3 1213.5V1213.4ZM963.8 1194.8C961.8 1165.7 949.4 1145.7 928 1137C911.7 1130.3 887.2 1130.4 860.4 1138.7L552.4 755.1L1338.5 692L1068.9 1380.3C1049.4 1358 1027.5 1336.1 1003.4 1316.6C1002 1290.6 985.8 1267.8 982.3 1263.1C996.3 1221.8 968.9 1198.7 963.7 1194.8H963.8ZM1264.1 430L1532.7 618.1L1342.9 687.3L1313.4 590.8L1264.2 430.1L1264.1 430ZM570.9 483.8L911.4 480.6L787.7 572.8L550.6 749.5L554.7 484L570.9 483.8ZM1262.2 652.5L1334.3 688.4L555.3 750.9L917.6 480.8L1262.2 652.4V652.5ZM1338.3 686L923.8 479.6L943.1 476.6L1259 427.4L1338.2 686.1L1338.3 686ZM550.7 486.8L546.6 751.3L301.6 737.4L531.3 506.3L550.7 486.8ZM1764.1 489.7C1773.3 494.5 1779.5 506.4 1778.2 516.7C1776.2 533.7 1743.5 593.8 1736.6 606.3C1722.6 586.2 1703.1 576.5 1686.9 571.9C1693.8 560.3 1725 508.3 1742.3 493.1C1749.2 487.1 1756.9 485.8 1764.1 489.6V489.7Z" fill="black"/>
<path d="M1003.6 1321.9C1003.4 1331.8 1000.8 1342.1 994.5 1351.8C982.6 1370.1 964.4 1385.1 946.5 1392.9C948.7 1395.1 950.9 1397.3 953.1 1399.4C997.5 1442.9 1036.5 1481.1 1100.5 1562.5C1123.7 1535.1 1144.6 1528.2 1155.1 1526.5C1157.8 1525.4 1160.4 1524.5 1163 1523.8C1140.9 1482.8 1084.5 1388.3 1003.6 1321.9Z" fill="#5DC2FB"/>
<path d="M1132.8 1545C1111.7 1561.9 1101.8 1580.1 1104.4 1597.5C1106.9 1614.4 1120.5 1627.6 1133.1 1633.5C1133.9 1608.7 1146.4 1591.9 1147 1591.2C1147.7 1590.3 1148.9 1590.2 1149.8 1590.8C1150.7 1591.5 1150.8 1592.7 1150.2 1593.6C1150.1 1593.8 1137.1 1611.3 1137.1 1636.1C1139 1640.3 1156.9 1679.5 1181.3 1706.6C1176.6 1687.7 1172.9 1637.2 1230.1 1556C1305.2 1449.4 1347.6 1436.3 1378.5 1441.4C1359.9 1424.5 1327.6 1404.2 1290.3 1419.9C1232 1444.4 1236.4 1502.5 1236.5 1503.1C1237.9 1519.4 1243.2 1531.9 1243.2 1532C1243.6 1533 1243.2 1534.2 1242.2 1534.6C1241.9 1534.7 1241.7 1534.8 1241.4 1534.8C1240.6 1534.8 1239.9 1534.4 1239.6 1533.6C1239.4 1533.1 1235 1522.7 1233.1 1508.3L1202.1 1547C1202.1 1547 1201.9 1547.2 1201.8 1547.3C1201.8 1547.3 1201.8 1547.3 1201.7 1547.3C1189.3 1554.9 1177.9 1569.4 1177.8 1569.5C1177.4 1570 1176.8 1570.3 1176.2 1570.3C1175.6 1570.3 1175.3 1570.2 1175 1569.9C1174.1 1569.2 1174 1568 1174.7 1567.1C1175.2 1566.5 1185.9 1552.9 1198.3 1544.8C1196.8 1541.1 1191.7 1530.9 1180.8 1527.5C1178.3 1526.7 1175.7 1526.4 1173 1526.4C1161.9 1526.4 1148.5 1532.6 1133.1 1544.9L1132.8 1545Z" fill="#FF6E86"/>
<path d="M1233.2 1558.3C1162.6 1658.6 1185.7 1709.6 1187.5 1713.1C1187.7 1713.3 1187.9 1713.5 1188 1713.7C1191.6 1717.1 1195.2 1720.3 1199 1722.9C1195.1 1717 1192.8 1709.5 1192.1 1700.3C1187.3 1636.3 1262.4 1509.3 1330.8 1466C1353 1451.9 1373.2 1447.6 1389.9 1453.2C1388.2 1451.3 1386.1 1449 1383.7 1446.5C1383.6 1446.5 1383.5 1446.5 1383.4 1446.5C1365.2 1442 1322.5 1431.6 1233.2 1558.3Z" fill="#FF6E86"/>
<path d="M707.3 1376.7C704.3 1367.1 693.4 1327.1 706 1295.2C706.2 1293.5 706.5 1291.8 706.9 1290.2C688.2 1293.1 662.5 1293.4 640.6 1280.4C618.3 1267.2 604.6 1242.8 599.9 1208C585.8 1103.1 705.9 1084.5 707.1 1084.3C708.2 1084.2 709.2 1084.9 709.3 1086C709.5 1087.1 708.7 1088.1 707.6 1088.2C707.6 1088.2 706.4 1088.4 704.5 1088.8C693.7 1093.5 681.1 1114.6 685.9 1129.6L765.3 1209.9C771.1 1199.9 779.2 1189.6 790.6 1179.3C811.8 1160.2 834.8 1147.4 856.5 1140.1L547.7 755.5L302.3 741.5L569.5 1011.8C615.2 974.6 663.3 958.9 664.2 958.7C665.2 958.4 666.3 958.9 666.7 960C667 961 666.5 962.1 665.4 962.5C663.9 963 512.4 1012.3 493.9 1145.1C482.5 1227.3 505.7 1298.8 557.6 1341.4C598.3 1374.8 651.5 1387.1 707.4 1376.9L707.3 1376.7Z" fill="#5DC2FB"/>
<path d="M991.1 1349.6C1015 1312.8 981.3 1268.1 978.8 1264.9C951.1 1242.6 902.4 1254.2 878.9 1279.1C878.5 1279.5 878 1279.7 877.5 1279.7C877 1279.7 876.5 1279.5 876.1 1279.2C875.3 1278.5 875.3 1277.2 876.1 1276.4C905.8 1245 954 1242.2 979.2 1260.2C991.8 1220.3 964.1 1199.7 961.1 1197.6C933.3 1189.1 882.1 1181 849.1 1222C848.7 1222.5 848.1 1222.7 847.6 1222.7C847.1 1222.7 846.7 1222.6 846.4 1222.3C845.5 1221.6 845.4 1220.4 846.1 1219.5C860.7 1201.3 894.8 1174 959.9 1193.1C957.6 1166.3 946.5 1148.7 926.7 1140.6C889.2 1125.2 829.4 1149.7 793.4 1182.1C763.9 1208.7 757.1 1235.5 756.6 1253.3C756 1272.6 762.4 1285.7 762.5 1285.8C763 1286.8 762.5 1288 761.6 1288.4C760.6 1288.9 759.4 1288.4 759 1287.5C758.9 1287.2 751.9 1272.6 753 1251.4C744.6 1253.3 729.6 1258.4 719.8 1271.4C709.9 1284.5 707.2 1302.6 711.8 1325.1C718.3 1357.1 729.1 1376.7 744.6 1384.9C757.7 1391.9 774.8 1390.8 798 1381.7C792.9 1376.2 788.6 1369.4 785.3 1361C784.9 1360 785.3 1358.8 786.4 1358.4C787.4 1358 788.6 1358.4 789 1359.5C795.6 1375.9 805.8 1386.4 819.5 1390.6C850.5 1400.2 889.6 1374.5 890.9 1373.6C919.3 1353 937.3 1330.2 941.2 1325.1C938.8 1323.1 936.2 1321.2 933.6 1319.8C932.6 1319.3 932.3 1318.1 932.8 1317.1C933.3 1316.1 934.5 1315.8 935.5 1316.3C944.7 1321.3 953.4 1331.4 953.7 1331.9C954.4 1332.7 954.3 1334 953.5 1334.7C953.1 1335 952.7 1335.2 952.2 1335.2C951.7 1335.2 951.1 1335 950.7 1334.5C950.7 1334.5 948 1331.3 944.1 1327.8C939.8 1333.5 922.1 1355.6 894.4 1376C899 1386.9 907 1393.1 918.1 1394.3C940.9 1396.8 973.9 1376.6 991.6 1349.5L991.1 1349.6Z" fill="white"/>
<path d="M558.9 479.9L915.9 476.6L979.2 406.7L905.4 406.9L591.7 456.2L558.9 479.9Z" fill="#D1EDF9"/>
<path d="M966.5 468.9L1006.3 462.7L1057.3 406.5L1023 406.6L966.5 468.9Z" fill="#D1EDF9"/>
<path d="M1122.2 444.6L1252.6 424.3L1202.6 406.2L1157 406.3L1122.2 444.6Z" fill="#D1EDF9"/>
<path d="M915.9 476.6H917.4L966.5 468.9L1023 406.6L979.2 406.7L915.9 476.6Z" fill="white"/>
<path d="M1006.3 462.7L1122.2 444.6L1157 406.3L1057.3 406.5L1006.3 462.7Z" fill="white"/>
</svg>
